<mxfile host="65bd71144e">
    <diagram id="umwXkolG5DJKDMx1B8QZ" name="PÃ¡gina-1">
        <mxGraphModel dx="1108" dy="607" grid="1" gridSize="10" guides="1" tooltips="1" connect="1" arrows="1" fold="1" page="1" pageScale="1" pageWidth="827" pageHeight="1169" background="none" math="0" shadow="0">
            <root>
                <mxCell id="0"/>
                <mxCell id="1" parent="0"/>
                <mxCell id="12" style="edgeStyle=elbowEdgeStyle;html=1;startArrow=ERmany;startFill=0;endArrow=ERmandOne;endFill=0;entryX=0;entryY=0.5;entryDx=0;entryDy=0;" edge="1" parent="1" source="2" target="4">
                    <mxGeometry relative="1" as="geometry">
                        <mxPoint x="386" y="520" as="targetPoint"/>
                    </mxGeometry>
                </mxCell>
                <object label="User" name="string" last_name="string" age="integer" email="text" phone_number="integer" password="text" id="2">
                    <mxCell style="whiteSpace=wrap;html=1;strokeColor=#FFFFFF;fillColor=#18141D;" parent="1" vertex="1">
                        <mxGeometry x="200" y="220" width="120" height="130" as="geometry"/>
                    </mxCell>
                </object>
                <mxCell id="13" style="edgeStyle=elbowEdgeStyle;html=1;entryX=0;entryY=0.5;entryDx=0;entryDy=0;startArrow=ERmany;startFill=0;endArrow=ERmany;endFill=0;" edge="1" parent="1" source="4" target="10">
                    <mxGeometry relative="1" as="geometry"/>
                </mxCell>
                <object label="Cart" purchase="boolean (default: false)" purchase_date="Date (default: Now)" id="4">
                    <mxCell style="whiteSpace=wrap;html=1;strokeColor=#FFFFFF;" parent="1" vertex="1">
                        <mxGeometry x="400" y="470" width="120" height="130" as="geometry"/>
                    </mxCell>
                </object>
                <object label="Figure" name="string" description="text" image="text" price="decimal" in_stock="integer" id="10">
                    <mxCell style="whiteSpace=wrap;html=1;strokeColor=#FFFFFF;" parent="1" vertex="1">
                        <mxGeometry x="570" y="100" width="120" height="130" as="geometry"/>
                    </mxCell>
                </object>
                <mxCell id="15" style="edgeStyle=elbowEdgeStyle;html=1;entryX=0.636;entryY=1.028;entryDx=0;entryDy=0;entryPerimeter=0;startArrow=none;startFill=0;endArrow=none;endFill=0;" edge="1" parent="1" source="14" target="10">
                    <mxGeometry relative="1" as="geometry"/>
                </mxCell>
                <mxCell id="16" style="edgeStyle=elbowEdgeStyle;html=1;entryX=1.025;entryY=0.868;entryDx=0;entryDy=0;entryPerimeter=0;startArrow=none;startFill=0;endArrow=none;endFill=0;" edge="1" parent="1" source="14" target="4">
                    <mxGeometry relative="1" as="geometry"/>
                </mxCell>
                <mxCell id="14" value="cart_figure" style="whiteSpace=wrap;html=1;" vertex="1" parent="1">
                    <mxGeometry x="690" y="350" width="120" height="60" as="geometry"/>
                </mxCell>
            </root>
        </mxGraphModel>
    </diagram>
</mxfile>